<?xml version="1.0" standalone="no"?>
<!DOCTYPE svg PUBLIC "-//W3C//DTD SVG 20010904//EN"
 "http://www.w3.org/TR/2001/REC-SVG-20010904/DTD/svg10.dtd">
<svg version="1.0" xmlns="http://www.w3.org/2000/svg"
 width="512.000000pt" height="512.000000pt" viewBox="0 0 512.000000 512.000000"
 preserveAspectRatio="xMidYMid meet">

<g transform="translate(0.000000,512.000000) scale(0.100000,-0.100000)"
fill="#000000" stroke="none">
<path d="M3679 5039 c-236 -162 -406 -314 -448 -402 -21 -43 -26 -47 -50 -42
-264 57 -595 64 -855 19 -351 -60 -678 -200 -948 -406 -80 -60 -190 -155 -196
-168 -1 -3 48 4 109 17 129 25 281 38 323 26 28 -9 27 -10 -57 -61 -118 -73
-280 -187 -427 -302 -341 -267 -594 -549 -726 -812 -41 -81 -87 -198 -81 -205
2 -2 49 22 103 53 54 32 130 72 169 89 70 32 180 63 190 53 3 -3 -10 -39 -29
-80 -94 -207 -132 -418 -123 -685 9 -287 65 -500 204 -777 185 -370 392 -605
732 -828 396 -260 908 -436 1480 -508 86 -11 165 -20 177 -20 18 0 24 14 48
111 86 347 84 655 -5 897 -29 80 -54 126 -140 254 -178 266 -285 529 -330 811
-19 123 -7 343 25 442 32 101 86 192 154 262 51 51 150 123 170 123 5 0 41
-40 80 -88 207 -259 479 -447 714 -495 l60 -12 22 -76 c81 -279 294 -351 593
-201 73 38 125 96 155 178 18 49 22 81 22 184 1 164 -17 219 -130 388 -60 89
-91 148 -110 206 -108 326 -308 793 -426 993 -54 93 -84 136 -131 192 -39 46
-43 59 -62 221 -21 173 -17 446 8 523 l15 48 -26 -17 c-53 -33 -98 -69 -155
-123 -55 -52 -57 -53 -52 -25 2 16 12 76 21 134 9 58 22 120 30 139 8 19 13
36 11 38 -2 1 -51 -29 -108 -68z"/>
</g>
</svg>
